/* XPM */
static char *_2b57a1b16c54074fa932fe3991ec216c0RmP5fsLDBK29pC[] = {
/* columns rows colors chars-per-pixel */
"48 46 216 2 ",
"   c None",
".  c #241409",
"X  c #3C1B07",
"o  c #371808",
"O  c #2A1F1C",
"+  c #3E251A",
"@  c #08192A",
"#  c #0C1C2C",
"$  c #0D243B",
"%  c #14273B",
"&  c #1A262E",
"*  c #252224",
"=  c #332926",
"-  c #252D36",
";  c #3A3736",
":  c #37302C",
">  c #441D08",
",  c #471E07",
"<  c #67190D",
"1  c #492409",
"2  c #53240B",
"3  c #5A290B",
"4  c #5F330C",
"5  c #5B2C13",
"6  c #4F3419",
"7  c #53351C",
"8  c #5A3817",
"9  c #492A1A",
"0  c #642B0C",
"q  c #692D0B",
"w  c #6A330D",
"e  c #67370D",
"r  c #72320D",
"t  c #7C350D",
"y  c #753B0C",
"u  c #683516",
"i  c #763814",
"p  c #612E12",
"a  c #4C3625",
"s  c #593A26",
"d  c #483C36",
"f  c #523B34",
"g  c #693C24",
"h  c #7A430C",
"j  c #6C431C",
"k  c #794513",
"l  c #454139",
"z  c #59493A",
"x  c #584329",
"c  c #6D4124",
"v  c #764E27",
"b  c #785428",
"n  c #6B5234",
"m  c #092A49",
"M  c #1A3147",
"N  c #062E51",
"B  c #0A2E51",
"V  c #0A3256",
"C  c #0A345A",
"Z  c #0A345A",
"A  c #183553",
"S  c #353B45",
"D  c #263B52",
"F  c #0C3A65",
"G  c #0C3D6A",
"H  c #093761",
"J  c #443D43",
"K  c #284055",
"L  c #15416A",
"P  c #0C4374",
"I  c #0D487C",
"U  c #164671",
"Y  c #305473",
"T  c #424142",
"R  c #594A46",
"E  c #575859",
"W  c #605751",
"Q  c #7A6154",
"!  c #6D6E6F",
"~  c #833A0E",
"^  c #8B3C0F",
"/  c #80370F",
"(  c #923F0E",
")  c #863D12",
"_  c #D23E12",
"`  c #EA2C15",
"'  c #E92715",
"]  c #EC3814",
"[  c #81430D",
"{  c #8F430E",
"}  c #8C4E0E",
"|  c #83490F",
" . c #944B0D",
".. c #99480E",
"X. c #98540E",
"o. c #8A4213",
"O. c #864B16",
"+. c #944211",
"@. c #9B4411",
"#. c #974619",
"$. c #885618",
"%. c #985512",
"&. c #A2530E",
"*. c #A35B0E",
"=. c #AB5C0E",
"-. c #AD560F",
";. c #B85B0E",
":. c #A44611",
">. c #AB4A11",
",. c #A54E16",
"<. c #B44D12",
"1. c #A35B12",
"2. c #AB5C10",
"3. c #A85515",
"4. c #B65112",
"5. c #BA5412",
"6. c #BB5D11",
"7. c #B75B18",
"8. c #B34B0F",
"9. c #8D6415",
"0. c #B4630F",
"q. c #BB630F",
"w. c #BD6B0F",
"e. c #A66114",
"r. c #BC6412",
"t. c #B96814",
"y. c #AA600E",
"u. c #864D26",
"i. c #8E572A",
"p. c #975A28",
"a. c #94522B",
"s. c #A95E27",
"d. c #8C6436",
"f. c #906C35",
"g. c #BB7924",
"h. c #B36D33",
"j. c #C25E11",
"k. c #DE5A12",
"l. c #EE4415",
"z. c #ED4618",
"x. c #F05115",
"c. c #C4680F",
"v. c #CC720E",
"b. c #DB7B0F",
"n. c #D6780E",
"m. c #C46211",
"M. c #C96611",
"N. c #C46A10",
"B. c #CC6D11",
"V. c #CC7211",
"C. c #CA741B",
"Z. c #D47411",
"A. c #D57911",
"S. c #DB7C10",
"D. c #D47916",
"F. c #D36D14",
"G. c #F46D15",
"H. c #F37416",
"J. c #E17F10",
"K. c #CD7C2F",
"L. c #957241",
"P. c #9D7944",
"I. c #94684E",
"U. c #AF941D",
"Y. c #DD841A",
"T. c #DC8015",
"R. c #F99917",
"E. c #EA8F1D",
"W. c #DDA719",
"Q. c #F6A618",
"!. c #D68C2C",
"~. c #E29428",
"^. c #E08F23",
"/. c #E6A639",
"(. c #ECB020",
"). c #FECE1D",
"_. c #DDC323",
"`. c #E3C922",
"'. c #FFE424",
"]. c #BC8F50",
"[. c #9C8172",
"{. c #B0927A",
"}. c #C38647",
"|. c #D89A46",
" X c #CA9954",
".X c #D49D54",
"XX c #D4A35A",
"oX c #DFAB5F",
"OX c #DAA55A",
"+X c #E0AC5F",
"@X c #E1AE60",
"#X c #E5B967",
"$X c #F1C85C",
"%X c #EFC65A",
"&X c #E8C76E",
"*X c #F3D267",
"=X c #ECCD71",
"-X c #EED275",
";X c #F2D36C",
":X c #F6E27E",
">X c #FAE77C",
",X c #0E4C83",
"<X c #0D4E88",
"1X c #0F518C",
"2X c #135289",
"3X c #0F5899",
"4X c #115593",
"5X c #115B9C",
"6X c #115897",
"7X c #2E5F87",
"8X c #9B908A",
"9X c #B39A8C",
"0X c #B4A094",
"qX c #FCEC81",
"wX c #FFF387",
"eX c #FFF488",
/* pixels */
"                                                                                                ",
"                                                                                                ",
"                                                                                                ",
"                                        q ,       2.1           ]       `                       ",
"                                      > ~     X.V.%.          z.`   ] x.l.                      ",
"                                      t +.3 X.V.m.2         E.x.] ` G.Q.                        ",
"                                    w 6.N.V.A.B.~     ' ` H.(.k.R.G.H.z.                        ",
"                                  3.v.S.S.S.b.m.o.    ] H.W.9.%.`.R.H.l.                        ",
"                                { ;.C.Z.7.t.b.Z.5.r     ).`.9.#.$.U.W.                          ",
"                        *.      3 @.7.a.8X}.n.S.m.:.>   Q.).`.$.:.o.%.3.                        ",
"                      N.*.      o { 4.b {.J.V.M.5.<.r   ] Q.'.U.^ <.} k O.2.{                   ",
"                    r.V.y       =.B.S.S.S.2.i :.<.<.^ < l.R.W.W./ i m N L 7 {                   ",
"                  r.b.*.      r.V.S.A.N.X.^ <.<.<.<.>.>   Z.+._ < u D G ,XG i 3                 ",
"                r.e.s i >     =.B.V.p.+.>.+.t ( <.<.<.r     ..    2 J ,XG <X; q                 ",
"              *.x A C f ,     4 1.O.p.+.0   . ( <.<.4.^     *.    > s U ,X,XA o.4               ",
"            6.j N ,XG S u         X 2         t <.<.<.-.w 0.g.      s F 1X,X1Xd *.              ",
"            *.: H 4XG B g                     q 4.<.<.5.[ !.d.    3 d C 2X6X5XU O.&.            ",
"             .& G 5X,XH R ) p X               q <.<.<.m.1.b   X k c A C ,X3X5X6Xd 1.            ",
"            %.M <X5X<XG 6XY l s u 4         q w 4.<.5.S.0.1 h %.z A V V G 5X5X5XI O.2.          ",
"          -.j C 3X5X4XG 5X3XP C D u.1.2 r 2.X.@.<.<.B.S.b.[ r f B Z V Z G 3X5X5X6XM } &.        ",
"          =.d P 5X5X5XI 3X5X1Xm m M c p j } y >.4.m.b.S.b.w.~ u * $ B B F 4X5X5XI V =  .        ",
"        &.*.% I 5X5X6X2X5X5X2Xj %.7 u 0.A...@.j.Z.S.S.S.b.b.m.<.:.) 7 = $ F 1X4XF V % 2         ",
"        q.j B I 5X5X3X5X5X5XK w.S.m.B.Z.m.8.-.A.S.S.S.S.S.S.v.>.@.) ;.y..     B m N = 0         ",
"        6.7 N G 3X5X5X5X5X5XS v.r.9 + i >.8.B.b.S.b.b.b.b.b.A.&.o @ 7 N.h       # N + >         ",
"        &.6 N C ,X5X5X7X2X2Xv b.| m m 6 q.v.b.b.S.^.~.~.~.Y.b.0.  @ # X.y.      @ $ p >         ",
"        y r m V G 3XY C.b A %.T.*.- % e.b.T.Y./.%X:X>XqXqX*X/.v.    - v n.X.2     # 3           ",
"          t : V Z C $.b.} k V.S.b.*.e b.b.^.;XwXeXwXwXwXeXeX>X~...  6 C.S.v.@.2   O p           ",
"          t 7 m V ; V.w.h Z.b.S.N.N.h N.T.$XeXwXwXwXwXwXwXqXwX*X0.  [ 0.} B. .2   2 1           ",
"            t = m 8 J.X.) o...r.e [ y =.~.qXeXwXwXwXwXwXwXwXwXqX!.5 u.s   o.3     o             ",
"            q u $ a Z.Z.i.b y +.s h } A.%XeXeXeXwXwXwXwXwXwXwXwX Xi.f     g                     ",
"              w p * &.Z.V.V.=.k p.A.S.~.>XeXwXwXwXwXwXwXwXwXeX:X.Xs. .                          ",
"              i.u.0 / 4.M.N.w.A.A.S.A.C.&XeXwXwXwXwXwXwXwXwXqX#X.Xt.0.                          ",
"              }.].g p <.<.2.S.D.J.S.S.B.h.-XqXeXeXeXwXwXqX:X-X#XOXD.V...                        ",
"                 X.XK.7.:.7.Y.|.D.S.S.j.v oX#X&X:X:X-X&X=X=X&X#X}.A.S.y.                        ",
"                b oXoX.Xs.<.D.~.S.S.B.<.j XXoXoXoX@X@X@X#X#XoXoXh.m.S. .                        ",
"                  L.XXoXs.<.5.j.j.j.4.#.d.OXoX@XoX@XoX+XoXoXoX.X3.<.5.t                         ",
"                    L..Xs.8.<.<.<.<.>.i ].@X@X@XoXoX@XoXoX@XOX7.<.>.<.^                         ",
"                      v 5 >.<.<.<.<.+.f.oX@X@X@XoX@X@X@XOX}.s.<.<.>.:.2                         ",
"                          :.<.>.:.:.c  X@X@X@X@X@XXX XP.v i >.<.<.4./                           ",
"                        / >.<.:.>.t . n L.L.L.L.f.x a     o >.<.<.<./                           ",
"                      3 >.>.<.<.4.r                       o :.4.>.>.>.) z                       ",
"                      i.#.h.>.s.,.0                         2 t I.[.I.9XW *                     ",
"                    ! 8XW 8Xg 0XQ                               T ! T E *                       ",
"                        * ;   S                                                                 ",
"                                                                                                ",
"                                                                                                "
};
