/* XPM */
static char *result[] = {
/* columns rows colors chars-per-pixel */
"48 48 90 1 ",
"  c #010101",
". c #080706",
"X c #080807",
"o c #0C0B0A",
"O c #100F0C",
"+ c #12110E",
"@ c #151513",
"# c #191613",
"$ c #1B1916",
"% c #1C1B1A",
"& c #211E1B",
"* c #24211D",
"= c #28241E",
"- c #222222",
"; c #2C2925",
": c #332E27",
"> c #36322C",
", c #3A352C",
"< c #3E3B34",
"1 c #3B3A38",
"2 c #433422",
"3 c #43392E",
"4 c #4A3D2D",
"5 c #433E34",
"6 c #4A3D30",
"7 c #4C4236",
"8 c #464039",
"9 c #4B4439",
"0 c #4F483C",
"q c #514332",
"w c #52463B",
"e c #554B3F",
"r c #4F4A41",
"t c #4F4D48",
"y c #554C42",
"u c #594D42",
"i c #534F48",
"p c #5B5246",
"a c #5D564B",
"s c #5F5950",
"d c #60574C",
"f c #635A4E",
"g c #665D52",
"h c #685F53",
"j c #676155",
"k c #6A6156",
"l c #6D655A",
"z c #6F6A5D",
"x c #716756",
"c c #746956",
"v c #71665A",
"b c #736A5C",
"n c #786D5B",
"m c #7D725E",
"M c #756C61",
"N c #796E64",
"B c #767062",
"V c #7D7363",
"C c #7D746B",
"Z c #80745F",
"A c #827661",
"S c #857964",
"D c #897C66",
"F c #81766D",
"G c #857C6B",
"H c #8B7F6A",
"J c #847B73",
"K c #887F70",
"L c #8E816C",
"P c #91846E",
"I c #8D8573",
"U c #8C847C",
"Y c #938771",
"T c #948872",
"R c #9A8C73",
"E c #938B7B",
"W c #998F7E",
"Q c #9F9175",
"! c #99917E",
"~ c #A29376",
"^ c #918A81",
"/ c #9D9582",
"( c #9F9884",
") c #9A948E",
"_ c #9C9690",
"` c #A19986",
"' c #A59C8A",
"] c #A89F8D",
"[ c #A9A18E",
"{ c #ADA492",
/* pixels */
"TTTTTTRQQPRPRPPPPPPPLDDPDDPPPPPPTTTTTTQQYTYTTTTT",
"TTTYTTTRPRPQRRPLPPLPPDPDDPLPPLPPPPTTTTTRYTTQQRTT",
"TTTTTTTTPPPPPPPLLLLLDLDLDDPDDLLLLLPPPTTTTYR~~~RT",
"YTTTTTTTPPLLPLLLZLLLLDLPPDDLPDLSHHHLLPTTTTTQ~QRT",
"TTTTTTYPLLLLLLLLLZLLLZSSSLSLZDLDHHHHHLPPPTU46FTY",
"TPTTTPPHLLZLLZZLLZZZZLLZSSZZZZSSHDHHHFppedbITnUY",
"TTTTRYHHLZLLmmZZcccLLLZLZZZmLPPDLHvwwmGGHDHWWbJY",
"TTTRQPHHLLZZZmmZLLLcZZZZSZcLLqq266VH/`(`']TGGvUY",
"TTTRRPDLZDZZZZmZZLLZSZmmZPLL3VI{{[[['```(ICLLTGJ",
"TTTTPLLDZZZLZZZZLLPLSZmnDL2mLGG[('(`'(``((IGLIGU",
"TTTYLDLPLZLLZZZZmLPLLmLLL2LLGLG(((([`'(`((ELGGBU",
"TTTPLLDZZDLDLZZZmmZmmLL7cL~Q!!G`'!(('''`('IGGIn^",
"TTPPLLDZZLLLZZZZmmmLLL3LG/!`SGGI(((([_'[((IILvUY",
"TPPLDDHDZZZLLZZZZLZLL7LS(``(GGGGCL!('[((''ILGNUY",
"TTPHLDDZLZLLZZZLZLLeizIG/!!ImsjzLI!((((((!ILvUTT",
"TPPLDDZZZZZZZZZZZLexlLBLIBVBVt0tV!''``(((ELCbUYT",
"RPPHHDSnZZZZnZZZLLxhMIbLgjhCg@$@tm!''(('(WIIbUYT",
"RYPHHDDZZDLDZZZZZ2fgVIGIfij>.  @1G'[([''(((/KYTT",
"PHPHPHHDHHLDDZcf,+*8hhIa<>o     %J''['''''(`/ETT",
"YHHHPHPHLLLLLm:$   o5rl<@@X    .+B('(['(((``(//T",
"PHPHHHPHLHLLHd#O X.o#%O. X     .@j'''''`''('('(E",
"HPYHPHHPLLLHk&o.    .   X.    .-;z'[''(`(('II//E",
"YHHYHPLHLPPn# O               .@1I`('``(/!II/'(E",
"HYHHLLPPLPPw. O         .      @z(``(```''ITII(E",
"HTHRHHRHHYHdo        .        .5/'````(`LCGTEI/E",
"HHHHHHHHYHHD=        .       .1I'(```///ILEIGGIE",
"TRHRHKRHYHYHu                $b''``!//(ILL!UGGGG",
"HHHHHQHHHYHH,        ..     @k/'[!!//IGLICGGCLGC",
"HH~HHHHHHPHH9              &a(''!/!GIGLGLLCCGFCb",
"~HHHH~HKPPYA5X            .a!(`(!!IGGGGIGGCCGFvU",
"HHHKHK~HPHLS9o            %I!``GILGGLGGGLCCGGCn'",
"~HHH~HHHLLPLA>         ..$B!!```!!EGIGLICCCBvCTT",
"HQKHHTHHHTRHHv#o       O*z//!/////EGLITEIBkL)YYY",
"HHHHTHHTTHHHHw..      *pG/!//L(II[EE!~BbzELPYYTT",
"~HQKRHRHHHHTH:.      ;x/'///(L(BL((CZZLZLDLYRTTT",
"HHHHHHHHHTTHHZ;&   OycG`/V//BGCCG[CPPLLLHLYQQQRT",
"HHHKHHHRHHHHHHHdo..;kHJJLCLLCCCJ!BZLPPLLHLTQ~QRY",
"K~H~~HHHHRHHPHHHu=3ugHHJLLCICCLJCVZZLLLZHPTQ~QRY",
"QKHHHH~RRHHRHRHPFZkZkgfdILLCCCIB0VDDLLLLHPTTTTTT",
"HQKHHHHHHHHHHHHHFZZkkhkkssIBLICCemDLLZLLLPTTTTTT",
"H~HHHHHHHHHHHKHHHZfhhZkkkgFJJFgFeZZLLDLLPPTTTTTT",
"'H~~~~HHQHQHHHHHHffhgfkkkgJFfgkgeLLDDLLPPTTTTTTT",
"HH'HH~HHHHHHHHHHFfggkkkkkFFgkkkkeLLLPRYYTPTTQRTT",
"~HHH~~~HQHHHHHHHF2ZfkkkkkkkkkkkkqLLPPQRRTTTTQRRT",
"HH~H~H~HHH~H~HHHHHuZhhhgkkkkkkkkuLPRRRYTTTTTTRTT",
"'HH'HHH''~H`H~~HKHHZgggZgggghdggcRYYTYTTRTTTTTTT",
"H~H~H''HH~HH~HH~H~HHZkZDHZvZfZZZYTYYTTTTRTTYTTTT",
"~H~H~HHH~H`HH`HH~HHHKKKHHHHJFKJQTTTTTTTTTYTTTTYT"
};
