/* XPM */
static char *_6415eb8e410439f91b871de5dce0ad51uwQN029smDuVCBi[] = {
/* columns rows colors chars-per-pixel */
"48 48 120 2 ",
"   c #433422",
".  c #4A3D2D",
"X  c #4A3D30",
"o  c #4E4236",
"O  c #514332",
"+  c #52453A",
"@  c #564B3F",
"#  c #574C41",
"$  c #594D42",
"%  c #5C5045",
"&  c #5F564E",
"*  c #60574C",
"=  c #645A4E",
"-  c #665C52",
";  c #685F54",
":  c #6A6156",
">  c #6E655A",
",  c #71665A",
"<  c #746A5C",
"1  c #7D725E",
"2  c #756B61",
"3  c #796E64",
"4  c #7D7363",
"5  c #7D746B",
"6  c #80745F",
"7  c #827661",
"8  c #857964",
"9  c #897C66",
"0  c #81766D",
"q  c #857C6B",
"w  c #8B7F6A",
"e  c #847B73",
"r  c #887F70",
"t  c #8E826D",
"y  c #91846E",
"u  c #8D8573",
"i  c #8C847C",
"p  c #928671",
"a  c #948872",
"s  c #998C72",
"d  c #998C73",
"f  c #9A8D73",
"g  c #9C8E73",
"h  c #9A8C74",
"j  c #9D8F75",
"k  c #948B7A",
"l  c #958D7A",
"z  c #978F7C",
"x  c #9A8F7C",
"c  c #9E9174",
"v  c #9F9075",
"b  c #9E9175",
"n  c #9F9175",
"m  c #99917E",
"M  c #9A927F",
"N  c #9A937F",
"B  c #A19376",
"V  c #A39477",
"C  c #918A81",
"Z  c #9B9380",
"A  c #9B9480",
"S  c #9D9481",
"D  c #9C9581",
"F  c #9D9582",
"G  c #9E9683",
"H  c #9F9784",
"J  c #9F9884",
"K  c #9A948E",
"L  c #9C9690",
"P  c #A09684",
"I  c #A09A85",
"U  c #A29B87",
"Y  c #A39988",
"T  c #A39B88",
"R  c #A49B89",
"E  c #A59B8A",
"W  c #A49D89",
"Q  c #A59D8A",
"!  c #A69D8B",
"~  c #A69F8B",
"^  c #A89D8B",
"/  c #A89F8D",
"(  c #A99F90",
")  c #A9A18E",
"_  c #ACA391",
"`  c #AEA592",
"'  c #B3AB9E",
"]  c #B8AF9B",
"[  c #BDB29D",
"{  c #B6AFA3",
"}  c #BFB4A0",
"|  c #BBB5AB",
" . c #C0B49E",
".. c #C1B6A1",
"X. c #C4B9A5",
"o. c #C8BCA6",
"O. c #C7BDAA",
"+. c #C7BEAD",
"@. c #C9BEA9",
"#. c #CFC4AF",
"$. c #C6C0B7",
"%. c #CBC3B5",
"&. c #CEC6BA",
"*. c #CAC4BC",
"=. c #D2C6B2",
"-. c #D4C9B4",
";. c #D2CBBE",
":. c #DACDB9",
">. c #DED2BC",
",. c #D5CFC5",
"<. c #D4D1CA",
"1. c #E2D6C0",
"2. c #EADDC6",
"3. c #ECDFC8",
"4. c #EDE0C9",
"5. c #E4E2DC",
"6. c #E7E5E0",
"7. c #EBEAE9",
"8. c #EFEFEF",
"9. c #F2F2F2",
/* pixels */
"a a a a a a s j s y y y s s y y y y s y t 9 t y 9 y y y y y y s p p s a a a c c a a a a a a a a ",
"a a a a a a a s s s s g g y t t t t t t y 9 9 9 9 9 y y y t t t y y p a a p a s a a s s c h s a ",
"a a a a a a a a y y t t y y y t t t t t t 9 t 9 y y 9 9 9 t 9 t t t y y p p p s a a s c V c s a ",
"a a a a a a a a t t t t y t t t 6 t t t 9 t 9 t 9 9 9 y t 9 t 9 w w t t y y p p a a s c V c s a ",
"a p p p a a y y t t t t t t t 6 t 6 t t 6 t 9 9 9 t 9 8 8 9 9 9 t w 9 w t t y p a a i o O 5 a a ",
"a s p s a y y t 6 t t t 6 6 t t 6 6 6 6 t 6 t 6 6 6 8 6 6 6 9 9 9 9 9 t w 0 % $ $ $ < u a < i a ",
"a a p p g y w w t t t t 6 1 t 1 6 6 1 t 8 t 8 t 6 6 6 1 t y t 9 t w > + + 1 q q q q t h z < e a ",
"a p p g c y w w t 6 1 t 6 1 1 6 t 6 6 6 6 6 6 6 8 6 1 9 t O O   X X 4 t S H H T ~ ! k 0 q < e a ",
"a a p j s y 9 y 6 6 6 6 6 6 1 6 7 t t 1 7 7 1 1 6 y t t . 4 u ` _ ~ ! ! ! T T H J u 5 u t u 0 e ",
"a a p s y t t 6 t 6 6 t 6 6 1 6 t t t t t 7 1 < t t   1 w q q ~ H T W T E I H I I J u q t u t i ",
"p p p p t 9 9 t t 6 t t 6 1 1 1 1 t t t 1 1 t t 9 . t t q u q I H H T ! H E J J J I u r q t 2 i ",
"a s p p t t 9 9 6 t y 6 t 6 6 6 1 1 t 7 1 t t o = t V B N N q I I Z T J E E ~ T I J u u q q < C ",
"a a y y t 9 9 6 6 t t t 6 6 6 6 1 1 1 t t t . u q A N I 7 q q u S H I H W W ~ W ~ J u t q < i a ",
"a p y t t 9 w 8 t 6 6 t t 6 6 6 1 t t t t o t 5 J I I I q q q q t q N H T ~ I J H W u t t 2 i a ",
"p a y t t 9 9 6 6 6 t t 6 6 6 t 6 t 6 O $ < u q J N N q 4 ; q 4 q u Z J T H L J J A u u , k a a ",
"s y y t 9 9 6 6 6 6 6 6 6 6 6 6 t y @ : > u < q u 3 4 4 r q &.;.H Z J T I T J J J u t q , i a a ",
"V w w w 9 9 9 6 6 6 9 9 6 6 6 6 t t = = 2 u < u & : : u O.,.8.8.O.w Z ! E T T H T k k u , i a a ",
"w V w w w 9 9 0 6 0 9 w 6 6 6 0 t . : ; 4 t t u - & ) } 5.8.9.9.5.T T ! E T T T H H H Z w p a a ",
"v w w w w w w w 9 w w w 9 9 w w t * : ; : : t : & ` O.5.9.9.9.9.9.[ T ~ E ~ T ! T T H T H k a a ",
"w w w w w w w w w w w w 9 9 w w 6 ; < : : - ] ` ` 6.6.9.9.9.9.9.9.[ T E E E ! T T H H T J T k a ",
"v w w h w w w w w w w w w w h x B B ) | $ ] 3.1.7.9.9.9.9.9.9.9.%.z T ~ ~ E E I T J T J T H I k ",
"w w w w w h h w w w w w w h w w y a a J *.#.=.3.2.9.9.9.9.9.9.9.O.Z T T E ~ H H H H I u u H N k ",
"w h w h w w w w w v V w w w v w y y t a ) <.-.-.4.4.9.9.9.9.9.} S J T H T T H T H Z u u A H T z ",
"w w w w w w h v w w w w h w w w t t t y J +.%.-.=.4.3.8.9.9.9.} T J H I H H T H T W p k k u J i ",
"h w h w w w w w w V w V w w r w w w w r P '  .+.-.=.4.8.9.9.} a J ) S J ~ J T I u 5 q u k u S k ",
"w w w w h e h w w w w w v w v w a a w h S E { ..-.-.4.8.9.9.X.J ) J I J J S H J t u l u q t u i ",
"h h w w h w w w w w w w w w w w w w w S x x (  .-.-.4.2.9.X.H ~ I J I N A S J u q t l u 5 t t q ",
"w w w h w w w h V w w w r w v w w h x x k a P  .-.-.4.4.] N J E ) N A N J u q q q q u 5 5 t q 5 ",
"w h w e w w h w r w w w w w w w w w h r p p Z ..-.-.3.1.3 I ~ ~ N N N q q q q t u q 5 5 0 0 5 < ",
"w w w w h w w w w w w P w v w r w h w w p p Z X.-.3.1.H N J I H N N u q u u q q q t q 5 8 0 < i ",
"h w w h h w h w w V w v r v w j h w h w t a H X.:.>.k T Z H H q u t 8 u q q u q q q 5 q 0 0 3 Y ",
"h w y w w w h w w w w r w w w w w r h w t a H o.@.H I Z Z T I T N N u q q u q u 5 5 5 3 > 5 a a ",
"w h w w w w h h w w t t t y t t w x w w h h ( P x Y P x S S P S H H k q w u k k u 3 : t K a a a ",
"w w w h w h w w y y y t t t t t w h w h h x h w ^ Y x P S p H u u ! z k d N 4 , , C t y a a a a ",
"w h w h w w w w w y w t t y t y e w w f x P 0 P Y x x P P 0 P 3 q P H 5 8 8 9 t t t t p s a a a ",
"w w w w w h w h y y y t t t t t f w P x L 0 9 P P 0 P P 7 0 5 0 q / 5 y y y t 6 9 t y g c j d p ",
"y y h w w w w w t t t y t t t y w v x ^ 0 e w w w 0 e w w 0 0 q Z 4 7 w y y t t w w p c V c s a ",
"y y w w w h 0 h t t t y y t y y w w P 6 7 w w e w w w e 3 0 q e 5 1 7 8 t y 9 t w y s j c c s a ",
"h t t w w w w w t t t w t t t t 0 9 7 7 - * * % r r w 0 0 0 r 3 + 4 8 9 6 9 t 9 w y a a a a a a ",
"h t h e h w h w t t y w t y y 0 0 6 3 > ; ; , - ; = r 0 e w 0 0 # 7 9 9 y t 9 t t y a a a a a a ",
"h y h w y w y y t t t t t t t 0 9 ; , : : : : : : , 0 0 e 0 - 0 % 6 6 w 9 t 9 t y y a a a a a a ",
"i h y h h h w w t w t t w t t 9 w = ; : : : : : : - 0 0 * - , - @ 9 t w t 9 y y s y a a a a a y ",
"w h y h h w w y y w w t 9 t 9 t w - ; ; : : : : - 0 0 - , : - - @ t 9 y y d d y y a a a g s s a ",
"h h h h v v h y h t t t t t 9 t w   , > : : : : : : : : : : , - @ 9 y y y g g a s y a s B h s a ",
"y y h i h w h y h y y h y y t t w w $ - - , , - : : : : - , - , @ y y s d s a a a a a a d d a a ",
"h y h w h h h y h h y y h t y y w e w 7 - - * 6 - - - - , - - - < s p p a a a a d a a a a a a a ",
"h y h h y i y h h y h h y y h y w j w w , , 1 0 w 7 , 7 - , , 3 p s p p a a a a a a p a a a a a ",
"i h y y h y h y h i y h y h y h h V w w w w w w w w w e 0 h w w a p p s y a a a a a a a a a a a "
};
