/* XPM */
static char *_15c8de92d4d464382e97c2b5f459057I6FcEWdQRf4njpcu[] = {
/* columns rows colors chars-per-pixel */
"48 48 233 2 ",
"   c #948872",
".  c #968972",
"X  c #9A8D74",
"o  c #9F9076",
"O  c #988B73",
"+  c #968973",
"@  c #9C8F75",
"#  c #988C73",
"$  c #968A73",
"%  c #9D8E75",
"&  c #9E8F75",
"*  c #978A73",
"=  c #958872",
"-  c #968A72",
";  c #9B8D74",
":  c #A09276",
">  c #998C73",
",  c #958972",
"<  c #938771",
"1  c #938670",
"2  c #91846F",
"3  c #90846D",
"4  c #94876F",
"5  c #92856E",
"6  c #90836D",
"7  c #928670",
"8  c #9D8F75",
"9  c #9E9076",
"0  c #948972",
"q  c #9D9075",
"w  c #978B73",
"e  c #998C74",
"r  c #978A72",
"t  c #958871",
"y  c #92856F",
"u  c #90846E",
"i  c #8E816B",
"p  c #8C7F69",
"a  c #8C7F6A",
"s  c #91846E",
"d  c #91856F",
"f  c #9B8E75",
"g  c #9C8E75",
"h  c #9B8E74",
"j  c #998D74",
"k  c #9D9076",
"l  c #9B8D72",
"z  c #96886F",
"x  c #8D806A",
"c  c #8C806A",
"v  c #8F826C",
"b  c #9F9276",
"n  c #A39577",
"m  c #92856D",
"M  c #8F826B",
"N  c #8E816A",
"B  c #8D8069",
"V  c #A49578",
"C  c #8E826C",
"Z  c #8B7E68",
"A  c #8A7E68",
"S  c #8A7E67",
"D  c #948871",
"F  c #897D67",
"G  c #877B65",
"H  c #857A64",
"J  c #867A64",
"K  c #8A7D66",
"L  c #8A7D67",
"P  c #887B66",
"I  c #877A65",
"U  c #847863",
"Y  c #857964",
"T  c #887C66",
"R  c #8A7D68",
"E  c #8B7E69",
"W  c #8B7F69",
"Q  c #948870",
"!  c #837863",
"~  c #807560",
"^  c #837762",
"/  c #807460",
"(  c #7D725D",
")  c #8B7E67",
"_  c #897C66",
"`  c #847862",
"'  c #7C725E",
"]  c #766E5A",
"[  c #79705C",
"{  c #827762",
"}  c #877B66",
"|  c #95886F",
" . c #897C67",
".. c #867964",
"X. c #817661",
"o. c #7D735E",
"O. c #7E735E",
"+. c #817561",
"@. c #857863",
"#. c #857963",
"$. c #817660",
"%. c #827661",
"&. c #7B715D",
"*. c #7A715C",
"=. c #7B715C",
"-. c #7D725E",
";. c #887B65",
":. c #9C8E73",
">. c #94866E",
",. c #817560",
"<. c #7F745F",
"1. c #7C715D",
"2. c #8E8169",
"3. c #8C7F68",
"4. c #7C725D",
"5. c #80745F",
"6. c #90836B",
"7. c #998B73",
"8. c #988B72",
"9. c #827761",
"0. c #837761",
"q. c #92856C",
"w. c #7E735F",
"e. c #7F735F",
"r. c #847963",
"t. c #93856D",
"y. c #92846C",
"u. c #9F9175",
"i. c #8F836C",
"p. c #897D66",
"a. c #837862",
"s. c #8D7F69",
"d. c #877A64",
"f. c #786F5B",
"g. c #8D7F68",
"h. c #8E8069",
"j. c #90826B",
"k. c #7A705C",
"l. c #827862",
"z. c #8B7F68",
"x. c #877B64",
"c. c #827560",
"v. c #948771",
"b. c #91846C",
"n. c #7B705C",
"m. c #7E725E",
"M. c #91836C",
"N. c #827662",
"B. c #847964",
"V. c #7C705D",
"C. c #91836B",
"Z. c #7E745F",
"A. c #91846B",
"S. c #887D65",
"D. c #7F7560",
"F. c #796F5B",
"G. c #7F7460",
"H. c #95876E",
"J. c #776F5A",
"K. c #7C735E",
"L. c #8F826A",
"P. c #867B64",
"I. c #766E59",
"U. c #776E5A",
"Y. c #867B65",
"T. c #837661",
"R. c #96886E",
"E. c #8E806A",
"W. c #887C65",
"Q. c #8C8068",
"!. c #94876E",
"~. c #877C65",
"^. c #807561",
"/. c #7A715D",
"(. c #94866D",
"). c #93866D",
"_. c #9E9075",
"`. c #9A8C74",
"'. c #8D8068",
"]. c #8C7E68",
"[. c #8F816A",
"{. c #998B72",
"}. c #8F836D",
"|. c #8B7F67",
" X c #948770",
".X c #8C7F67",
"XX c #928570",
"oX c #7A705B",
"OX c #786E5A",
"+X c #847763",
"@X c #7F735E",
"#X c #7A6F5B",
"$X c #776D59",
"%X c #786F5A",
"&X c #7D715D",
"*X c #998C72",
"=X c #79705B",
"-X c #7C715C",
";X c #9C8F74",
":X c #7F7561",
">X c #817761",
",X c #867A65",
"<X c #968971",
"1X c #847762",
"2X c #7F755F",
"3X c #867B66",
"4X c #8D816B",
"5X c #90826A",
"6X c #8C8069",
"7X c #847962",
"8X c #978970",
"9X c #7B725D",
"0X c #9F9176",
"qX c #8D8169",
"wX c #968A71",
"eX c #A19376",
"rX c #A59678",
"tX c #9F9275",
"yX c #A39477",
"uX c #A09176",
"iX c #93866E",
"pX c #A19377",
"aX c #9E8F74",
"sX c #837763",
"dX c #A19276",
"fX c #978A71",
"gX c #998A71",
"hX c #988B71",
"jX c #958971",
"kX c #9C8E74",
"lX c #91856E",
"zX c #968870",
"xX c white",
/* pixels */
"          . X o O                         + @ @ #                         $ % & * =             ",
"          - ; : >     , + + , < < < < 1 2 3 4 4 5 6 7 < < <               * 8 9 * =   , . , 0   ",
"          . > q w   , e > r t y u u u 6 i p p a p p 6 s u u d 7 < <       + f g $   $ e h j $   ",
"              ,     . k l z 5 i x p p p p p p p p p p p p c x v 6 u 1       = ,     # b n : e   ",
"                < d s 4 m M N B p p p p p p p p p p p p p p p x x x v 6 u <         > : V : e   ",
"            < y u C x N x p p Z A A A p p Z Z Z S Z Z A A Z Z p p p x x x 6 d 1     * h q f *   ",
"        , D d i p p p p Z A Z F G H J A Z K L P I G G H U Y T R E W p p p p x 6 7               ",
"        > Q i p p p p p ! ~ U U ^ / ( G ) _ T Y ` ` ^ ' ] [ { I } T Z p p p p x 6 <             ",
"    , > q | p p p  .Y ..X.o.O.+.@.#.$.$.` J J U ^ %.o.&.*.=.-.X.I ) ;.J T W p p i 7     , =     ",
"    $ h :.>.p p L U / ,.%.<.1.,._ 2.3.X./ ^ %.%.%.<.4.<.%./ 1.5._ 6._ ` Y R p p p s < , e 7..   ",
"    . 8.m N p p U +.9.U 0./ / ^ S q.>.3...%.w.5.e.1.r.#.X.w.,.@.) t.y.3..._ Z p p C d * : u.>   ",
"    , , i.c p p F T p.) #.,./ -.a.B t.s.d.,.f.=.9.G K p.#.<./ ,.` g.y.h...J L p p i d $ h ; *   ",
"      7 C c Z G p.B j.N d.%.,.( O.^ K #.^ X.k.k.l.N N z.x.c.,.O.-.` ;.d.^ U P Z p x u v.. + ,   ",
"    < 6 x p  .~ 9.) b.B J ^ ^ %.-.n.m.=.w.^ %.-.~ 3.M.3.#.^ ^ / ' -.1.-./ N... .p p i y         ",
"    < 6 x p A B.^ J S Z J ^ ^ ^ ,.-.V.<.%.^ ^ %.%...3.L J ^ ^ { ~ 1.1.e.%.^ Y _ p p i y         ",
"    y v x Z F Y ^ ` Y G @.^ ^ ^ N.,.<.%.` ^ ^ ^ ^ ^ J J @.^ ^ ^ { / / %.^ ^ U G Z p x 6 <       ",
"  < u x p L J %.{ ^ N.%.,.,.^ ^ ^ ^ U G ;.Y +.X.^ ^ %.,.~ X.{ ^ ^ ^ Y G ;.U %.U F p p i 7       ",
"  < u p p _ { 4.~ %./ -.n.4.,.^ ^ U ;.C.t.z.Z.m.,.%.e.1.&.1.+.^ ^ U S A.q.S.<.<.T z.p i 1       ",
"  < u p p Z G D.4.[ F.<.<.( 1./ G.%.B H.z y.T <.n.k.J.K.~ -.-.O.<.U L.z z 6.P.9.T Z p M 8.# $   ",
"  < 6 p p x x T Z.I.U.r.;.^ -./ m.<.S q.z z b.Y.' U.J.a.p.T.O.-.w.~ 3.>.z R.L.S A p E 6.:.8 #   ",
"  7 v p p E.C.y.W.Z.1.p.L.3.U ^ / -.<.Q.!.H.m 6.~.4.<.S 6.) ` %.^./.{ B (.H.).b.M B E j.:._.`.  ",
"  u x p x N L.'.N G -.<.) L._ U %.X.%.J 2.y.].[.B Y o.%.) 6.d.{ { ,.N.G h.b.2.B q.N p x t.{.O   ",
"  }.p p a B 3._ 3._ / 1.{ ;.;.U %.+.^ I L 3.) ) ) G <.-.^ |...^ %.<.U ;.p.B ) L 2.B p p N  X$   ",
"  }.p p p Z _ G J U %.w.n.' ^ ^ ,.e.X._ _ ;..X;.@.U %.4.=./ %.^ X.4.` _ W.W._ P I Z p p x XX    ",
"  }.p p Z ;.U ` ` ^ 5.oXU.OX4.,.+X{ O.%.J W.#.` ^ ^ @X#X$X%Xm.+.^ ` O.$.T #.U U U L p p x XX    ",
"  }.p p Z I ^ ^ T.<.1.( o.-.-.X.T z.G ,.%.Y ^ ^ %.e.&X&Xo.o.m.%.T B r.X.U ` ^ ^ ^ L p p N Q $   ",
"  u x p p I N.X.5.O.w.^ ^ ,.e.%.S b.y.x.%.N.~ +./ -./ ^ ^ ,.e.0.S m N G T.%.+.X.#.A p x t.*X#   ",
"  7 }.p p } ^.4.&.%._ T ^ e.e.,.J E.t.L.W.+.=X1.e.$.L _ %.=.5.%.J M t.N J ,.-Xo.} Z p j.l ;X#   ",
"  < u p p T :X] >X3.[.3.Y +.,.-.<...B d.^ X.k.=X9.B B L Y ~ ,.e.Z.I S W.0.,.F.[ ,XZ p i <X* ,   ",
"  < u p p F { =Xr.h.C.M ;.^ ^ w.1.O.X.e./ %.w.4.^ [.6.B ;.1X%.<.1.o.2X$.,.%.4.' 3XZ p 4X7       ",
"  < u p p Z d.,.9.W.2.M ;.^ ^ %.w.k.f.-.+.^ ^ ,.%.;.5Xh.G ^ ^ %.e.[ F.-.%.^ %.^  .E p i 7       ",
"  < u x p Z T U ^ U Y ..U ^ ^ ^ %.+.~ %.^ ^ ^ ^ ^ ` ..Y U ^ ^ ^ %.+.,.%.^ ^ ^ ..R p p i 7       ",
"    y v s.p L ,XU ^ ^ ^ ,.~ ^ ^ ^ ^ ^ I G ` / %.^ ^ ^ %.+.%.^ ^ ^ ^ U J G ^ N.J Z p x 6 <       ",
"    < 6 x p A Y ^ %.+.~ -.m.%.^ ^ ^ ..B 2.;.<.<.%.^ ~ e.m.<.%.^ ^ ^ ;.6X2.J ^ J p p i y         ",
"    < u x p  .~ ~ e.n.f.=.&Xm.%.%.U g.t.H.6.#.-.-.~ f.=X=.k./ %.%.U 2.>.>.N T } p p v 1 , , ,   ",
"      7 C c Z G w.U.%X7X#.,.1./ O.<.) (.8XH.6.#.9XJ.=X9.G ~ -.-.O.~ B H.z t.x A p x 4 h 0X8 O   ",
"        C c p p X.U.f.p.h._ ~ ,.m.-.a.N H.z t.qXa.f.=.W.6.p.~ -.O.O.J L.>.t.M p p i wXeXrXeXX   ",
"      < }.x p p T X.' ! N M W.` %.<.9Xx.C.(.N C.qX{ ( #.L.L.J { %.w.e.I C.M x p p i <XtXyXuX>   ",
"        7 v p p E T ^ o.r.L T U %.^ J G S h.L ) ) G ~ w.` 2.J ^ ^ X.J L 3.p p p p s t w # O .   ",
"        - iXN p p W _ ! %.r.G U +.,.a.G p.p.p.G J ..%.n.k.9.^ U U %._ p Z p p p i 1             ",
"      - h *X!.N p p p p J U ;.J ^ <.o.G L G T #.^ ^ ^ o.f.k.{ G G U  .p p p p 4Xu <             ",
"    - h pXyXaXt.E.p p p Z Z Z L _ ;.H T P ..U ^ ^ ` G Y sXU T Z Z Z p p p p N 3 1               ",
"    $ h yXrXdXfXy v 4X4Xc p p Z Z Z A Z R  .T T T _ A A L L Z p p p x i M.gXhXjX      $ 8 kXO   ",
"    , e 0XpX_.w   7 u u C x x p p p p p p p p p p p p p p p p x x i }.lXzXu.8 *       * uX_.>   ",
"      , e X O =         y s s i x c c p p p p p p p p c c x x v s d < . > X *   =     , j > $   ",
"        , , ,   e O     v.< < 7 d d d u C s.x x p x 6 d d d d 7 < <   , , ,   $ X +     , , =   ",
"                O w                   < d u u u u s <                         + e ,             ",
"                                                                                                "
};
