/* XPM */
static char *_964b60dd3254942a116c23411ba31e33ba76ZWeQ6BiLchX[] = {
/* columns rows colors chars-per-pixel */
"48 48 183 2 ",
"   c #020202",
".  c #0B0B0C",
"X  c #120B0A",
"o  c #0C1907",
"O  c #091008",
"+  c #0D1908",
"@  c #1A120D",
"#  c #131315",
"$  c #181B18",
"%  c #261C08",
"&  c #271E1B",
"*  c #162B0C",
"=  c #1B231C",
"-  c #33240F",
";  c #2A2918",
":  c #1F1F21",
">  c #2D1F22",
",  c #1F2021",
"<  c #1E382E",
"1  c #192B36",
"2  c #232424",
"3  c #2A252B",
"4  c #2D2C2D",
"5  c #34282A",
"6  c #3D3722",
"7  c #323133",
"8  c #3A3435",
"9  c #383936",
"0  c #3C3B3C",
"q  c #453923",
"w  c #443737",
"e  c #423939",
"r  c #553D38",
"t  c #244319",
"y  c #1E4123",
"u  c #395B29",
"i  c #364430",
"p  c #3B5D33",
"a  c #366A21",
"s  c #5E4210",
"d  c #6D4E11",
"f  c #4A413C",
"g  c #524C36",
"h  c #654938",
"j  c #745C30",
"k  c #57722F",
"l  c #4A723A",
"z  c #7F632E",
"x  c #2A3C4A",
"c  c #3C3C40",
"v  c #223D51",
"b  c #493C45",
"n  c #553D41",
"m  c #27414F",
"M  c #3E4343",
"N  c #394649",
"B  c #37554E",
"V  c #3A5455",
"C  c #484243",
"Z  c #464549",
"A  c #4A4B4C",
"S  c #584647",
"D  c #554A46",
"F  c #59474C",
"G  c #564B4C",
"H  c #5A4D4B",
"J  c #5E5542",
"K  c #5B514D",
"L  c #554254",
"P  c #4F5553",
"I  c #565556",
"U  c #5D565B",
"Y  c #674A4A",
"T  c #7A5743",
"R  c #6B4F52",
"E  c #675658",
"W  c #735656",
"Q  c #735B5B",
"!  c #4E764D",
"~  c #5A655C",
"^  c #6D625F",
"/  c #756258",
"(  c #786F5A",
")  c #687C50",
"_  c #71745D",
"`  c #7D735E",
"'  c #655F67",
"]  c #7C5D64",
"[  c #5B7761",
"{  c #6A656D",
"}  c #7E6561",
"|  c #7D6E68",
" . c #7F7460",
".. c #77737C",
"X. c #A5771D",
"o. c #906D31",
"O. c #825C52",
"+. c #886758",
"@. c #946C55",
"#. c #80745F",
"$. c #8D705E",
"%. c #9B7855",
"&. c #836D65",
"*. c #827661",
"=. c #857963",
"-. c #897D66",
";. c #867168",
":. c #8A756B",
">. c #8C7F69",
",. c #8B7777",
"<. c #A77B63",
"1. c #B17E67",
"2. c #448329",
"3. c #4A8936",
"4. c #558634",
"5. c #5C9235",
"6. c #62993C",
"7. c #708F50",
"8. c #669551",
"9. c #63A143",
"0. c #738A61",
"q. c #759168",
"w. c #BD8927",
"e. c #C48A1D",
"r. c #ECA519",
"t. c #90984B",
"y. c #949853",
"u. c #A7945B",
"i. c #81A859",
"p. c #8E816B",
"a. c #91846E",
"s. c #938771",
"d. c #948872",
"f. c #9A8C73",
"g. c #94887C",
"h. c #9F9175",
"j. c #A78E6E",
"k. c #B88767",
"l. c #A29376",
"z. c #87A966",
"x. c #AABB7B",
"c. c #C38D6D",
"v. c #C49474",
"b. c #D29973",
"n. c #D6A57C",
"m. c #7C7482",
"M. c #837485",
"N. c #957C84",
"B. c #8C7E94",
"V. c #898B8B",
"C. c #91908D",
"Z. c #988799",
"A. c #BD9894",
"S. c #95A497",
"D. c #A89DAA",
"F. c #9EB0A2",
"G. c #ACA0A9",
"H. c #B1A7AD",
"J. c #ADA3B0",
"K. c #B4A5B3",
"L. c #AEBCB3",
"P. c #B7B8B9",
"I. c #D09D80",
"U. c #D9A686",
"Y. c #C4A790",
"T. c #D2B494",
"R. c #E5B599",
"E. c #C7B3B9",
"W. c #B1C5B5",
"Q. c #D0C296",
"!. c #C0C7BD",
"~. c #F4C9AE",
"^. c #F6CCB2",
"/. c #F9D0B6",
"(. c #BEB5C2",
"). c #C0B3C3",
"_. c #C1D2C0",
"`. c #C9D1CF",
"'. c #C7DECD",
"]. c #CFD9D4",
"[. c #CCE4D2",
"{. c #CFE8D5",
"}. c #D2EAD7",
/* pixels */
"d.d.d.d.d.d.d.h.d.d.d.d.d.d.d.a.d.a.d.a.a.>.>.>.>.>.a.a.d.d.d.s.s.d.s.d.d.d.h.h.d.d.d.d.s.g.d.d.",
"d.d.d.d.d.d.d.f.d.d.d.f.f.d.a.a.a.p.a.>.p.>.>.>.>.>.>.a.p.p.p.p.a.d.s.d.d.d.d.g.d.d.d.f.h.h.d.d.",
"d.d.d.d.d.d.d.d.d.d.d.f.f.a.a.>.>.>.>.>.>.>.>.>.>.>.>.>.>.>.>.>.p.p.a.d.s.s.s.d.d.d.f.h.l.h.f.d.",
"d.d.d.d.d.d.d.d.d.p.p.p.>.>.>.>.>.>.>.>.4 7 4 4 4 7 4 4 >.>.>.>.>.>.>.>.a.a.s.d.d.d.f.h.l.h.f.d.",
"d.d.d.d.d.d.a.p.p.p.>.p.>.>.>.>.-.-.3 8 n G K K K K H n w 3 >.>.>.>.>.>.>.p.p.a.d.d.d.d.f.f.d.d.",
"d.d.d.d.d.d.p.p.>.>.>.>.>.=.=.=.4 8 0 S Q ;.;.| | ;.&.Q S 0 8 4 >.>.>.>.>.>.p.p.p.d.d.d.d.d.d.d.",
"d.d.d.d.f.a.p.p.>.>.>.>.*. .*.  5 Y } | ;.:.{ P I { :.;.| / Y 5   =.-.>.>.>.>.>.p.a.d.d.d.d.d.d.",
"d.d.d.f.f.d.>.>.>.=.*.*. .` . : r } ;.:.:.:.W S S W :.:.:.:.} n : . =.=.=.>.>.>.p.a.s.d.d.d.d.d.",
"d.d.d.f.d.a.>.>.=.=. .*. . .. c { :.:.:.:.:.+.W W / :.:.:.:.:.{ c . >.=.=.-.>.>.p.p.a.d.f.f.d.d.",
"d.d.d.d.a.p.>.p.=.*.*.=.*.  . c Q :.:.:.:.;.;.&.&.:.:.:.:.:.:.^ 0 .   -.=.=.-.>.p.a.a.d.h.h.f.d.",
"d.d.d.d.a.>.>.>.-.-.-.>.=.$ 4 N E / :.:.;.;.;.;.:.;.;.:.;.:.+.E Z 4 $ p.=.=.-.>.p.p.a.d.f.d.d.d.",
"d.d.d.a.>.>.>.=.=.-.p.>.  & A A S R &.:.,.V.g.g.g.g.g.,.,.} Y F A A 2   *.*.=.>.-.p.a.d.d.d.d.s.",
"d.d.s.a.p.>.-. .*.-.p.p.  2 A A A L R N.P.!.!._._._.!.P.N.R G A A A ,   #.*.=.-.p.p.p.a.d.d.d.d.",
"d.d.a.p.>.-.>.*.*.=.p.1   2 A A H E ,.H.`.[.}.{.{.{.[.`.H.M.E G A A ,   1 *.=.-.-.-.p.a.s.s.d.d.",
"d.d.a.p.>.-.-.*.*.*.V N # 2 Z A F ] K.`.[.[.[.[.[.[.[.[.`.K.] S A Z , # N V *.=.p.-.p.p.s.s.s.d.",
"a.a.a.>.>.-.=. .*.m [ 0.9 3 9 Z F ] J.`.[.[.[.'.[.[.[.].`.J.] F Z 9 4 9 0.[ m #.-.-.p.p.a.s.d.d.",
"f.d.p.#.p.p.p.( = [ z.z.l i 7 9 e F Z.!.}.}.}.}.}.}.}.}.!.C.S e c 7 i l z.q.[ = #.-.p.p.d.d.d.d.",
"s.a.p.p.p.p.#.` $ 7.z.q.5.p 3 7 7 0 / C.W.W.W.W.W.W.W.W.C./ e 7 7 2 u 9.z.z.) $ -.p.-.p.d.d.d.d.",
"s.s.p.p.#.p.p.#.` $ p 9.z.g . 0 Z C 0 f A A A A A A A A Z 0 C Z i # g q.9.u o -.-.-.p.p.f.f.d.d.",
"s.a.p.p.p.p.p.p.#.` y 3.q.8.t ; 0 H C C D D D H J D D D C n A 0 ; t 8.z.p * p.p.p.-.p.p.f.f.h.d.",
"f.p.p.p.p.p.p.p.p.#.m V 0.8.4.* : c n W :.:.:.:.:.:.:.:.Q n w 2 * k 9.7.=   p.p.p.p.p.p.p.d.f.d.",
"s.p.p.p.p.p.p.#.p.#.#.m , j u.4.t . . f :.:.:.:.:.:.:.:.f X + * 4.u.T = 1 p.-.>.p.p.p.p.p.a.d.d.",
"p.p.p.p.#.p.p.p.-.#.#.1   r j.6.k Y U I K H H K K H H K I U R k 6.j.r   1 -.-.=.$.p.p.=.p.a.d.s.",
"s.p.p.p.p.p.#.$.#.#.#.`   0 _ 3.t.b.E...0 e i 9 i f e 9 m.E.b.t.5._ w   -.=.=.=.=.p.p.p.p.p.d.d.",
"s.p.=.p.p.=.` =.#.#.` ` ` x B 3.t.I.(.B.R <.t.3.q.j.%.Q B.E.I.t.3.B x #.=.*.=.*.#.-.>.>.p.a.d.d.",
"s.p.p.p.=.=.=.` #.#.#.#.` v B 8.7.u.Y.A.A.T.Y.x.Q.Q.R.A.A.Y.y.i.8.B v =.=.*.#.#.=.>.>.p.a.a.d.d.",
"f.a.p.p.p.=.` ` ` #.#.=.#.` V q.9.5.u.b.~./.~.~.~.^./.^.b.u.5.8.q.V p.-.#.#.` ` =.-.>.>.a.f.d.d.",
"s.s.a.p.-.-.` _ #.=.>.>.=.` #.P ! 2.; T U.~.R.n.n.R.^.U.T ; 2.! V -.>.-.=.#.` ( =.>.>.p.f.f.d.d.",
"d.a.a.>.p.-. ._ *.-.p.>.=.*.*.` y t P H h Q $.$.;.+./ h D P t < ` *.*.*.*.#.( ` =.-.>.p.d.d.d.d.",
"d.a.a.>.-.-.#.` *.-.p.>.=.*.*. .= 0 D...& . : c M =   = ..D.e + `  .`  .#.*.#.*.-.-.>.p.d.d.d.d.",
"d.a.a.>.>.>.=.#.*.=.-.-.=.*.*.  ~ P.(.W.S.i # . . # 0 S.W.(.W.~   ( ` #.*.*.*.*.-.>.>.p.p.d.d.d.",
"d.d.a.>.>.>.=.=.*.*.=.=.*.*.$ ~ F.}.].P.S.V.A . O A V.D.P.].}.F.~ $ *.*.*.*.*.*.-.>.>.p.d.d.d.d.",
"d.d.a.>.>.>.-.=. .*. . . .  4 S.'.'.W.V.m.L.V.Z Z V.P.M.V.W.'.'.S.q X -.=.=.#.=.p.>.p.a.a.a.d.d.",
"d.d.d.a.>.>.-.*. . . . .  3 L A S.W.M ' D.M.V.J.D.B.M.D.{ Z W.S.g X.s   a.=.=.=.>.>.a.a.d.d.d.d.",
"d.d.d.p.>.>.-. . .` ( I } E b b U I ; { ).Z.M.,.n.j.Z.(.{ $ P I r d j / K a.-.-.>.>.a.a.f.f.d.d.",
"d.d.d.d.p.>.>.-. .( M E T.j.b L 3   3 { J.).M.J w.I.(.J.&.q % 6 b ; :.T.{ N p.-.>.p.a.h.l.f.f.d.",
"d.a.d.s.a.>.>.>.*.` N E v.b.@.5   &.5 9 U K.P.G.K.).J.U z e.e.s > @.b.k.E N p.>.>.p.d.h.l.l.f.d.",
"s.s.d.s.a.p.p.>.-.*.` D h h g # #.#.# 7 I { ........{ C o.r.r.d & r h h S >.>.>.>.a.d.h.l.f.f.d.",
"s.s.d.s.s.p.>.>.-.-.*.#.      *.#.*.X g ;.S w 5 e e f K o.e.e.j 2       >.>.>.>.>.a.a.d.d.d.d.d.",
"d.d.d.d.d.d.p.>.>.-.>.*.*.=.=.=.*.X w @.c.k.+.Y Y +.k.k.%.Y - % *.*.>.>.>.>.>.>.p.a.d.d.d.d.d.d.",
"d.d.d.f.f.f.d.>.>.>.>.>.=.*.-.*.  @ +.c.b.1.Y 5 5 Y 1.b.c.O.# =.-.#.-.>.>.>.>.p.a.a.d.d.d.d.d.d.",
"d.d.d.f.l.l.f.a.p.>.p.>.>.>.>.-.  ; @.c.<.Y >     & Y <.c.@.&   >.>.-.p.>.p.p.a.a.d.d.d.d.d.d.d.",
"d.d.d.f.l.l.h.d.a.p.p.p.>.>.>.>.2 4 e G D &   =.-.X $ G D e 3 2 >.>.p.p.a.d.f.d.d.d.d.d.f.f.d.d.",
"d.d.d.f.f.l.h.f.d.a.p.a.p.p.p.>.# , u l p O   >.>.  O p l u ; # p.p.p.a.a.h.f.d.d.d.d.d.l.f.f.d.",
"d.d.d.d.d.f.d.d.d.d.s.a.a.p.p.p.>.+ a 2.a + >.>.>.>.+ a 2.a o >.a.a.d.f.d.f.d.d.d.d.d.d.f.d.d.d.",
"d.d.d.d.d.d.d.d.f.d.s.d.d.d.d.d.a.a.+ + o >.>.>.>.>.p.+ o o a.d.a.a.a.d.d.d.d.d.d.d.d.d.d.d.d.d.",
"d.d.d.d.d.d.d.d.d.d.d.d.d.d.d.a.s.s.s.  a.a.a.a.p.p.d.d.  s.a.d.d.d.d.d.d.d.d.d.f.d.d.d.d.d.d.d.",
"d.d.d.d.d.d.d.d.d.d.d.d.d.d.d.d.d.d.d.d.d.s.d.d.d.d.d.d.d.d.s.a.d.d.d.d.d.d.d.d.d.d.d.d.d.d.d.d."
};
