/* XPM */
static char *result[] = {
/* columns rows colors chars-per-pixel */
"48 48 103 2 ",
"   c #000000",
".  c #0A0403",
"X  c #090807",
"o  c #0D0C0A",
"O  c #140000",
"+  c #13110E",
"@  c #161410",
"#  c #191713",
"$  c #1E1B17",
"%  c #211410",
"&  c #2B1914",
"*  c #211E19",
"=  c #26221C",
"-  c #29251F",
";  c gray13",
":  c #2B2720",
">  c #2E2A23",
",  c #322D25",
"<  c #332F28",
"1  c #353027",
"2  c #363129",
"3  c #3C372D",
"4  c #3E382E",
"5  c #373737",
"6  c #411210",
"7  c #491E19",
"8  c #561712",
"9  c #581712",
"0  c #770D05",
"q  c #64120C",
"w  c #6E100A",
"e  c #6F201B",
"r  c #433D32",
"t  c #4D3D32",
"y  c #702621",
"u  c #79322E",
"i  c #464035",
"p  c #494237",
"a  c #46413A",
"s  c #4B4439",
"d  c #4F483B",
"f  c #514A3D",
"g  c #4C4843",
"h  c #564E41",
"j  c #5C5446",
"k  c #5F5748",
"l  c #5B5B5B",
"z  c #605748",
"x  c #635A4B",
"c  c #685E4E",
"v  c #6A604F",
"b  c #6A6151",
"n  c #726856",
"m  c #756B59",
"M  c #7D725E",
"N  c #7F7461",
"B  c gray50",
"V  c #92271F",
"C  c #812C25",
"Z  c #8D2922",
"A  c #812F2A",
"S  c #902720",
"D  c #912A22",
"F  c #9E2921",
"G  c #813229",
"H  c #91362F",
"J  c #903F32",
"K  c #D84A3F",
"L  c #EF4236",
"P  c #E1463D",
"I  c #EC4439",
"U  c #F34135",
"Y  c #954640",
"T  c #934843",
"R  c #8F5C4B",
"E  c #81755F",
"W  c #827662",
"Q  c #847864",
"!  c #887C66",
"~  c #857C6D",
"^  c #8C7F69",
"/  c #C64E45",
"(  c #CC4D43",
")  c #D84A41",
"_  c #C55046",
"`  c #8E816B",
"'  c #91846E",
"]  c #95886F",
"[  c #898172",
"{  c #938771",
"}  c #948872",
"|  c #998C73",
" . c #958B79",
".. c #9F9075",
"X. c #A29376",
"o. c #96938F",
"O. c #969696",
"+. c #989898",
"@. c #D0CBC2",
"#. c #D9D5CE",
"$. c #EEEDEC",
"%. c #F6F5F5",
"&. c #FEFEFE",
/* pixels */
"} } } } } } } ..| } } } { { { ] ' { { ' ` ^ ^ ` ` ! ` ] ' } } } } } } } } } | | | | { } } | } { ",
"} } } } } } } } { } } | | | ] ' ' ^ ' ^ ` ` ^ ^ ^ ` ^ ` ^ ` ` ` ] [ ] [ { } { | | } { | | X.| | ",
"} } } } } } } } } ] ' | | ] ' ^ j z j h h s = : p f p 3 r h j x ` ` ` ] ] } } [ } } } | X.X...| ",
"} } } } } } } } } ' ^ ' ^ ^ ^ ^ 4 < : - = # X   o @ @ + # > 1 4 ^ ^ ^ ` ` ` } ] } } } | ..X...| ",
"} } } } } } } ` ' ^ ^ ^ s p +   ( U U U U L U U U 8 8 T T Z S Z X . + r ^ ^ ` ' { { { | | | } } ",
"} } } } } } ` ^ ^ ^ ^ ^ - #     ( U U U U U U U U 8 8 T T Z S S     X 1 ^ ^ ^ ^ ' [ { { } { } } ",
"} } } } } ] ` ^ ^ ! 2 * K ) K ) I U U U U U U U U K P 9 9 Y Y Y C C C G = s ^ ^ ^ ' { { } } } } ",
"} } } | | } ^ ^ ^ ! * X U U U U U U U U U U U U U U U 8 8 T T T V V V S   , ^ ^ ^ ^ ' { } } } } ",
"} } } | } ' ^ ^ ! ~ y e U U U U U U U U U U U U U U U F F A u u H H H H 6 7 [ ^ ^ ^ ] ` } | | } ",
"} } } } ] ` ^ ^ f - L U U U U U U U U U U U U U U U U U U w 9 9 T T T T V V * j ^ ^ ` } | ..| | ",
"} } } } ` ` ^ ^ O O U U U U U U U U U U U U U U U U U U U 0 q q T T T T Z Z . % ^ ^ ` ` } | } } ",
"} } } ] ` ^ o   U U U U U U U U U U U U U U U U U U U U U U U U 8 8 8 8 T T V V o $ ^ ] } } } } ",
"} [ } ` ^ ^ +   U U U U U U U U U U U U U U U U U U U U U U U U 8 8 8 8 T T V V   o ` ` } } } } ",
"} } } W m p I U U U U U U U U U U U U U U U U U U U U U U U U U U U U U 9 8 T T S D t h 4 } } } ",
"} } ` N x * U U U U U U U U U U U U U U U U U U U U U U U U U U U U U U 8 8 T T V S & 3 : } } } ",
"} } ` x $   U U U U U U U U U U U U U U U U U U U U U U U U U U U U U U U U 8 8 V Z O $ 4 } } } ",
"} } ' #     U U U U U U U U U U U U U U U U U U U U U U U U U U U U U U U U 8 8 V S O > h } } } ",
"} m s / U U U U U U U U U U U U U U U U U U U U U U U U U U U U U U U U U U 8 8 Y T Z J R v M } ",
"} m p / U U U U U U U U U U U U U U U U U U U U U U U U U U U U U U U U U U 8 8 T Y Z S J d W ] ",
"} N f _ U U U U U U U U U U U U U U U U U U U U U U U U U U U U U U U U U U U U 8 8 .   . $ W | ",
"} Q k / U U U U U U U U U U U U U U U U U U U U U U U U U U U U U U U U U U U U 8 8 .     # E } ",
"} N z           U U U U U U U U U U U U U U U U U U U U U U U U U U U U U U             + r M } ",
"} n r           U U U U U U U U U U U U U U U U U U U U U U U U U U U U U U             , j M } ",
"} j ,                   U U U U U U U             U U U U U U U U U                 %.&.@.c M } ",
"} j >                   U U U U U U U             U U U U U U U U U                 %.&.#.f n } ",
"} j $                                 &.&.&.&.&.&.                          &.&.&.&.l l l - h } ",
"} h o                                 &.&.&.&.&.&.                          &.&.&.&.l l l   r | ",
"} s   %.&.&.&.&.                      &.&.&.&.&.&.                      &.&.&.&.l l +.+.+.  p } ",
"} 4   %.&.&.&.&.                      &.&.&.&.&.&.                      &.&.&.&.l l O.+.+.  h } ",
"} d   %.&.&.&.&.&.&.&.&.&.&.&.&.X     &.&.&.&.&.&.    &.&.&.&.&.&.&.&.&.&.&.&.&.l l O.+.+.o c } ",
"} s X %.&.&.&.&.&.&.&.&.&.&.&.&.X     &.&.&.&.&.&.    &.&.&.&.&.&.&.&.&.&.&.&.&.l l O.O.O.> b } ",
"} } ` $     &.&.&.&.&.&.&.&.&.&.&.&.&.            &.&.&.&.&.&.&.&.&.&.&.&.&.l l +.O.X = d ] } } ",
"} } [ f +   &.&.&.&.&.&.&.&.&.&.&.&.&.            &.&.&.&.&.&.&.&.&.&.&.&.&.l l +.+.X 4 z } } } ",
"} } } x r o &.&.&.&.&.&.&.&.&.&.&.&.&.&.&.&.&.&.&.&.&.&.&.&.&.&.&.&.&.&.&.&.l l +.+.X 1 h { } } ",
"} } } j f r %.&.&.&.&.&.&.&.&.&.&.&.&.&.&.&.&.&.&.&.&.&.&.&.&.&.&.&.&.&.&.&.l l +.+.$ r < | } } ",
"} } } ` ` ` *   &.&.&.&.&.&.&.&.&.&.&.&.&.&.&.&.&.&.&.&.&.&.&.&.&.&.&.&.&.&.+.+.    ^ ] | X.| | ",
"} } } } ` ` j 3 %.&.&.&.&.&.&.&.&.&.&.&.&.&.&.&.&.&.&.&.&.&.&.&.&.&.&.&.&.&.+.O., r ` } X.X.X.| ",
"} } } } ` ` ` } g 5 &.&.&.&.&.&.&.&.&.&.&.&.&.&.&.&.&.&.&.&.&.&.&.&.&.&.B o.; a  .} ' { | X.| | ",
"} } [ } } ` ` ` f o &.&.&.&.&.&.&.&.&.&.&.&.&.&.&.&.&.&.&.&.&.&.&.&.&.&.l l   r ^ ^ ] } | } } } ",
"} } } } } ] ` ` c p $.%.&.&.&.&.&.&.&.&.&.&.&.&.&.&.&.&.&.&.&.&.&.&.&.&.g l ; x ^ ^ } { } } } } ",
"{ } { { | | ] ^ ` ^ >   &.&.&.&.&.&.&.&.&.&.&.&.&.&.&.&.&.&.&.&.&.&.&.&.  X ^ ^ ` ' { } } } } } ",
"} } } | X.X...] ` ^ i o &.&.&.&.&.&.&.&.&.&.&.&.&.&.&.&.&.&.&.&.&.&.&.%.  X ^ ' ' } { } } } } } ",
"} } | | X.X.X.| ] ` ^ ` #       %.&.&.&.&.&.&.&.&.&.&.&.&.&.&.&.  . * 4 ' ' | { } { { } | ..| | ",
"} } { | | ..| } } ] ` ` j = X   %.&.&.&.&.&.&.&.&.&.&.&.&.&.&.&.  $ j j ' ] X.| { { { } } | | | ",
"{ } } } { | } } } } { } } ] ' ^ o                           X * ` ` ] } } | } } } } } } } | | { ",
"} } } } } } } } } { } } ] [ { ] 1 * @ o # $ * @ X X $ - > : 4 j } } } [ } } } } } } } } } } } } ",
"} } } } } } } } } | } } } } } } { { [ } ] ` [ ' ` ^ ] } [ { } } } } } } } } } } } } } } } } } } ",
"} } } } } } } } } } } { } } } } } } } } } } } } } } } } } } } } } } } } } } } } } } } } } } } } "
};
