/* XPM */
static char *_5d66b5cdbbd4051d4112aaf9fdcb85ckxOIcUHr5Ob8KTyP[] = {
/* columns rows colors chars-per-pixel */
"48 48 167 2 ",
"   c #3F2D23",
".  c #343737",
"X  c #2A2828",
"o  c #4B1B18",
"O  c #431A1A",
"+  c #5F1F1F",
"@  c #55211D",
"#  c #7E2118",
"$  c #5F2121",
"%  c #59382A",
"&  c #462D26",
"*  c #612222",
"=  c #6D2423",
"-  c #6C2B29",
";  c #7F2727",
":  c #782927",
">  c #752425",
",  c #683D3D",
"<  c #7E3E32",
"1  c #4C463D",
"2  c #574831",
"3  c #6A563A",
"4  c #502E4B",
"5  c #4A4645",
"6  c gray34",
"7  c #5C5E5E",
"8  c #6F4343",
"9  c #794646",
"0  c #776E5A",
"q  c #796F5B",
"w  c #7D725E",
"e  c #686564",
"r  c #6C6A6A",
"t  c #7B6C6C",
"y  c #7F7460",
"u  c #B12D1E",
"i  c #B73110",
"p  c #832A28",
"a  c #952B2A",
"s  c #982E2B",
"d  c #9C3531",
"f  c #8A3B35",
"g  c #A32F2E",
"h  c #B02D23",
"j  c #AF302C",
"k  c #BC3229",
"l  c #B4352A",
"z  c #A03130",
"x  c #A63A39",
"c  c #B33534",
"v  c #BE3A38",
"b  c #BB3534",
"n  c #CD3B0D",
"m  c #FF3F00",
"M  c #C4392B",
"N  c #C43629",
"B  c #C43635",
"V  c #C53B35",
"C  c #CD3838",
"Z  c #CD3935",
"A  c #D13B3A",
"S  c #D93E3C",
"D  c #D43D33",
"F  c #864535",
"G  c #9C4936",
"H  c #A4403A",
"J  c #BB4C3E",
"K  c #AF5B3D",
"L  c #D3450A",
"P  c #FF4200",
"I  c #FF4B01",
"U  c #FF5202",
"Y  c #FB5C03",
"T  c #EC4615",
"R  c #DE7811",
"E  c #FE6607",
"W  c #FF6A00",
"Q  c #FF7A00",
"!  c #FF770E",
"~  c #CA4535",
"^  c #C84438",
"/  c #D34339",
"(  c #DA443D",
")  c #E1443D",
"_  c #E7483E",
"`  c #885945",
"'  c #955654",
"]  c #B24C45",
"[  c #80745F",
"{  c #9D7A50",
"}  c #856956",
"|  c #AB6341",
" . c #B66B48",
".. c #AE7C4F",
"X. c #B96153",
"o. c #836664",
"O. c #827661",
"+. c #857963",
"@. c #897C66",
"#. c #8C7F69",
"$. c #8C7B7B",
"%. c #B66966",
"&. c #D74740",
"*. c #D84F42",
"=. c #D15951",
"-. c #E44440",
";. c #E94642",
":. c #EC4A44",
">. c #E34E43",
",. c #F74E46",
"<. c #F94F47",
"1. c #EE524A",
"2. c #E3544A",
"3. c #F5554B",
"4. c #FD524A",
"5. c #F35147",
"6. c #E35350",
"7. c #FE5D51",
"8. c #C2644B",
"9. c #E76756",
"0. c #EE6B58",
"q. c #CB6666",
"w. c #C76F6E",
"e. c #F27465",
"r. c #FB7C77",
"t. c #E97C75",
"y. c #FF870B",
"u. c #FF9713",
"i. c orange",
"p. c #FFAA15",
"a. c #FFB416",
"s. c #FFBB17",
"d. c #FFC41A",
"f. c #FFDB26",
"g. c #FFDF29",
"h. c #B68357",
"j. c #B58C5B",
"k. c #8E816A",
"l. c #91846D",
"z. c #938771",
"x. c #948872",
"c. c #9A8C73",
"v. c #9F9175",
"b. c #BE9869",
"n. c #A29376",
"m. c #C29E6E",
"M. c #F28E79",
"N. c #C4A171",
"B. c #907899",
"V. c #8B8685",
"C. c #8B8D8D",
"Z. c #97908F",
"A. c #9E9191",
"S. c #978483",
"D. c #B98282",
"F. c #A39091",
"G. c #BB989C",
"H. c #CDAC80",
"J. c #C4AF90",
"K. c #D3BA96",
"L. c #E6B596",
"P. c #EBBFA1",
"I. c #E4CAA7",
"U. c #E6CDAC",
"Y. c #E6CDAC",
"T. c #E6CAA9",
"R. c #E9D0AE",
/* pixels */
"x.x.x.x.x.x.x.v.x.x.x.x.x.x.l.l.x.l.l.l.k.#.#.k.#.#.l.x.z.x.x.x.x.x.x.x.x.x.c.c.c.x.x.x.x.x.x.x.",
"x.x.x.x.x.x.x.c.x.x.x.c.x.x.l.l.l.l.k.k.k.#.#.#.#.#.#.l.#.k.k.k.z.l.x.x.x.x.x.x.x.x.c.c.v.c.c.x.",
"x.x.x.x.x.x.x.x.x.x.x.c.x.l.l.k.#.#.#.#.#.#.#.#.#.k.#.#.#.#.#.#.l.#.l.l.z.x.z.x.x.x.c.c.n.v.c.x.",
"x.x.x.x.x.x.x.x.x.k.k.k.l.#.k.#.#.k.#.#.#.#.#.#.#.#.#.#.#.#.#.#.#.#.l.#.#.z.x.x.x.x.c.n.n.v.c.x.",
"x.x.x.x.x.x.l.k.k.#.#.k.k.k.k.@.@.@.@.@.#.@.#.@.#.+.@.+.@.+.#.#.#.#.#.#.#.#.l.l.z.z.x.c.c.c.x.x.",
"x.x.x.x.x.x.l.k.#.#.#.#.@.+.+.+.+.O.O.@.@.@.@.+.+.+.+.+.y +.+.+.#.@.#.#.#.#.#.l.x.z.z.z.x.x.x.x.",
"x.x.x.x.c.l.k.#.#.#.#.#.O.w O.O.O.O.w +.@.+.@.+.+.y y q 0 0 y +.+.@.@.#.#.#.#.#.#.z.x.z.x.x.x.x.",
"x.x.x.c.c.x.#.#.#.@.O.O.O.w w O.+.+.O.y O.+.O.O.O.y w w q y y y +.#.+.+.+.@.#.#.#.z.z.z.x.x.x.x.",
"x.x.x.c.x.k.#.#.+.+.y O.[ [ w [ +.@.k.+.O.O.w w y y w O.w w w O.+.l.#.+.[ #.#.#.k.k.x.x.c.c.x.x.",
"x.x.x.x.l.l.#.k.+.+.O.+.O.[ w O.@.k.l.@.+.[ w w y w O.O.O.w w O.+.l.k.@.+.+.#.#.#.k.x.x.v.c.c.x.",
"x.x.x.x.l.#.#.#.@.@.@.#.+.w w w [ k.l.@.+.w w w 2.l @.@.+.w [ w [ #.l.#.+.+.@.#.#.k.l.x.c.x.x.x.",
"x.x.x.k.#.#.#.+.+.@.#.#.+.O.O.w w [ @.O.h O.) 3.2.: #.@.+.w O.O.[ O.O.O.[ +.+.#.#.#.k.x.x.x.x.x.",
"x.x.z.k.k.#.@.y O.@.k.k.O.O.O.O.w w ~ ( 5.,.4.;.a @.k.@.+.O.O.[ w w w w y O.+.@.#.#.k.l.x.x.x.x.",
"x.x.z.k.#.#.@.+.O.+.@.#.+.O.O.O.[ M 3.7.7.) :./ o +.@.@.+.O.O.O.y w w w +.y +.@.#.#.k.l.x.l.x.x.",
"x.z.l.k.#.#.+.y +.O.+.+.O.O.O.O.O.k _ J H G.t.,.p +.+.+.O.O.O.O.O.y O.O.O.O.O.+.#.#.k.k.x.x.l.c.",
"x.l.l.#.#.@.+.y O.O.O.O.[ [ O.O.O./ 4./ 4 B.r.4.B [ O.y O.O.O.O.O.O.O.+.+.+.y +.@.#.#.k.l.x.x.l.",
"c.l.k.k.k.k.[ w w w [ w w w [ O.~ ( 5.4.3.:.;.;.z O.w w w q O.O.O.O.k.k.k.+.[ d.k.[ k.k.x.x.x.x.",
"x.l.k.k.k.k.[ w w w w w w w w [ ^ / ) v d d c B * q q w w w q [ w O.k.l.l.k.[ [ k.k.k.k.x.x.x.x.",
"x.l.k.k.k.k.[ k.w w 0 [ +.[ w [ w : s g s c C d [ q q O.O.[ [ [ w w @.l.l.l.k.k.k.[ k.k.c.c.c.x.",
"x.l.k.k.[ k.k.k.O.w w +.@.@.O.O.w w w k.O z A p O.w q +.#.@.O.[ w w +.k.P l.k.k.k.k.k.k.c.c.c.x.",
"x.k.k.k.k.k.k.k.k.[ w [ @.k.+.O.[ [ [ @.k.z A j # O.w O.#.k.+.[ O.w O.P P P Q #.k.i.@.k.l.c.x.x.",
"x.k.k.k.@.k.@.@.+.+.[ w O.+.+.O.[ [ [ * ` e.:.) ) k w w O.#.+.[ O.I P U U k.@.#.k.k.k.k.k.l.x.x.",
"x.k.k.@.@.@.@.@.@.+.[ w w w O.w +.@ g f J.P.7.;.A A h w w O.O.O.O.W ! u.I I I P @.k.k.@.k.l.l.x.",
"x.k.k.@.k.@.+.[ +.[ w w w w w N ^ c : t Y.Y.M.,.; : V Z q [ [ [ O.a.d.! E u.E m [ k.@.k.k.l.c.x.",
"x.k.#.#.@.@.y +.[ [ w w w w ~ 3.1.> +.b.Y.Y.L.1.z w : :.c y q y f.g.a.a.d.y.P O.[ @.#.#.#.l.x.x.",
"x.l.k.@.#.y y y [ [ [ [ w @ V 6.X.#.5 K.Y.Y.I.=.V $ & 9.1.= y O.f.g.a.W p.U [ [ +.#.#.k.l.x.x.x.",
"x.l.k.#.#.+.y y w [ O.+.[ A.q.D.V.#.+.Y.Y.Y.K. .C a F 0.&.= q O.s.p.R L ! m w w +.#.#.#.l.c.x.x.",
"x.l.l.k.#.@.y 0 [ +.#.@.O.C.8 t r @.+.R.R.I.N.h./ b ' 8.q.A.O.O.O.Y i n Y [ w q +.@.#.l.c.x.x.x.",
"z.z.k.#.#.+.y 0 O.@.k.#.+.6 e X y O.} I.I.H.j.h./ k B.F.9 C.. q w ^ N T O.[ w q +.@.#.k.x.x.x.x.",
"x.z.l.#.k.@.y y O.@.k.#.+.O.5 y y A K m.m.j.j. .:.;.x 8 V.e O.O.D ) u [ O.O.w O.@.@.#.k.l.x.x.x.",
"x.z.l.#.k.@.+.y O.+.@.#.+.O.O.O.( <.^ ..j.j...*.7.4.;.a ' ] D &.*.l q [ O.O.O.O.@.#.#.k.l.x.x.x.",
"z.z.l.#.#.@.@.+.+.O.O.+.O.O.O.O.v ) C G { j.| 0.7.4.;.p V ) S J F O.O.O.O.O.O.+.@.#.#.k.l.x.x.x.",
"x.z.z.k.@.@.@.y +.y y y w y O.O.= b C s & 3 % >.4.S b < 8. .` % O.O.+.@.@.[ [ [ k.k.k.l.l.x.x.x.",
"x.x.z.k.k.@.@.y y y w w w w [ O.a b A B + #.[ x ) B b % 3 2 [ O.O.O.+.k.k.@.@.@.k.k.k.l.x.x.x.x.",
"x.x.z.z.k.k.k.y y w w w w w w 1 %.6.c ; o k.+.o A S C = w w w [ [ [ k.l.l.k.@.@.k.@.l.x.c.x.x.x.",
"x.z.z.z.k.k.@.+.y 0 0 y +.O.w . t 2 O k.x.l.l.' 9.=.w.- @.O.w w [ w @.k.l.l.k.@.@.k.l.v.n.n.x.x.",
"x.x.z.z.k.$.+.k.w w 0 k.k.+.[ [ w w O.k.l.l.k.$.S.o.Z.5 #.@.O.w w w +.@.l.l.k.#.k.k.x.v.n.v.c.x.",
"x.x.x.z.k.k.k.k.k.w w [ @.k.+.+.[ [ w +.k.k.k.k.7 . w O.@.k.+.O.[ w [ @.k.k.#.#.k.k.x.v.v.v.x.x.",
"x.x.x.z.z.k.k.k.k.+.[ w [ +.k.[ [ O.+.+.@.k.@.@.@.+.[ w [ @.+.O.[ [ @.@.@.k.@.#.@.l.x.x.x.x.x.x.",
"x.x.x.x.x.z.k.k.k.k.k.+.+.[ k.[ O.[ [ +.+.+.@.@.+.O.O.w w [ O.+.@.[ @.@.k.@.k.#.k.l.x.x.x.x.x.x.",
"x.x.x.x.c.v.l.k.k.k.k.k.y w k.w y y y +.@.+.@.y +.+.y y y y y +.+.[ @.#.@.k.#.k.l.l.x.x.x.x.x.l.",
"x.x.x.c.v.n.v.k.k.+.k.k.k.k.k.k.@.+.+.@.+.+.+.y y y @.y y y @.#.#.#.#.#.k.k.k.l.l.x.x.x.x.x.x.x.",
"x.x.x.c.n.n.v.x.k.k.k.k.+.k.k.+.@.@.k.+.@.@.+.@.#.@.#.@.@.@.@.@.k.#.#.k.l.x.c.x.x.x.x.x.c.c.x.x.",
"x.x.x.c.v.v.v.x.x.z.k.k.k.k.k.k.k.@.k.k.k.k.k.#.#.k.#.#.#.#.k.k.#.k.l.l.l.v.c.x.x.x.x.x.n.v.c.x.",
"x.x.x.x.c.x.c.z.x.x.x.x.z.k.k.k.$.@.k.k.#.#.#.#.#.#.#.#.k.k.k.k.l.l.x.x.x.c.x.x.x.x.x.x.x.c.x.x.",
"x.x.z.x.x.x.x.x.c.x.x.z.z.z.l.z.l.l.k.k.k.#.#.#.#.k.k.l.l.l.k.l.l.x.x.x.x.x.x.x.c.x.x.x.x.x.x.x.",
"x.x.x.x.x.x.x.x.x.x.x.x.x.x.x.x.x.z.x.z.z.k.k.z.z.k.z.z.z.z.z.z.x.x.x.x.x.x.x.x.c.x.x.x.x.x.x.x.",
"x.z.x.x.x.x.x.x.x.x.x.x.z.x.x.x.x.x.x.x.x.x.x.x.z.x.x.x.x.x.x.z.x.x.x.x.x.x.x.x.x.x.x.l.x.x.x.x."
};
