/* XPM */
static char *result[] = {
/* columns rows colors chars-per-pixel */
"48 48 78 1 ",
"  c #8D8069",
". c #8C7F68",
"X c #8A7D66",
"o c #8B7E67",
"O c #867A63",
"+ c #80755F",
"@ c #827660",
"# c #958973",
"$ c #837761",
"% c #847862",
"& c #7F745E",
"* c #948872",
"= c #897C65",
"- c #8F826A",
"; c #877B64",
": c #938771",
"> c #998C73",
", c #7E735D",
"< c #968A73",
"1 c #91846D",
"2 c #90836B",
"3 c #7C725C",
"4 c #92866F",
"5 c #978A73",
"6 c #8D8067",
"7 c #9B8D74",
"8 c #827760",
"9 c #95876D",
"0 c #A09275",
"q c #93856C",
"w c #796F5A",
"e c #90D0E2",
"r c #9E9075",
"t c #96D8EB",
"y c #E3D5B6",
"u c #9BDFF1",
"i c #A59477",
"p c #B7A98A",
"a c #55808C",
"s c #83C5D9",
"d c #7AB5C7",
"f c #CFC3A6",
"g c #A4EBFB",
"h c #66A8BA",
"j c #76A8B5",
"k c #C4B799",
"l c #6295A3",
"z c #467886",
"x c #4F7984",
"c c #85BDCE",
"v c #8C9C9A",
"b c #DBCDAE",
"n c #2C323B",
"m c #6D9EAB",
"M c #3A5D67",
"N c #5F8B98",
"B c #6F8E97",
"V c #5F6A6E",
"C c #A6AB9B",
"Z c #45444B",
"A c #91C6D5",
"S c #7AB0BF",
"D c #27505E",
"F c #ADF6FF",
"G c #605748",
"H c #AE9B7D",
"J c #579AAC",
"K c #908C8F",
"L c #88AFB4",
"P c #6B7C82",
"I c #8B7B5E",
"U c #737364",
"Y c #5B5F5E",
"T c #A39F8D",
"R c #466773",
"E c #675F4C",
"W c #87617B",
"Q c #A8B2BA",
/* pixels */
"#####570>##<55*::::4-  -  14:::*#####5rr5##<5<##",
"######57<#<7>591222--     --222144*##<5><#57r75#",
"########*:*7591-               -224::**###>0i07#",
"########:1-1-                     ---:*###>0i07#",
"#####*:1-- -  .oXXX..ooXXXXX=Xo.     -14**<>7>5#",
"####<*1-    X;=;O%$XoXX;OOO%+8O=oo.   -24*##<###",
"####>9- ....%+$$$+3OX==O$$@3ww@O;=o...  -:*#####",
"##<7r9  .=%%@&,@O;%@$O%%$@,,,,3@;6;O;.   4*#<<##",
"##<7>q  =%@$@+,@=66O$%@@+&+++,,8=2.;OX.  1:<7>5#",
"##<5q-  O$%O$+&@=-qXO8,&+&%%@,+$=2-oO;o  -45rr>#",
"###*2   XXXo%++38o1oO@w38=X=O&&+8o-6OOX  -4<7>5#",
"##*4- oO;o-.O@@&&$=$@@33@o6oO+@+&%O%@%;o  2:5<##",
"##:1- X$%X-.O$$@&,+&+NjjjN-oO$$+,&&++$;X  -4*###",
"#*:2 .X%%OXoO$$$+33zdgFFFgdMO%%8+33&@$OX..-4**##",
"#*1- o=%%%O;%$$$@+&sgggggguj%%%$8++@%%%;..-2:*##",
"#:1  XO+8$$8++$$$$aeuuueAeuex+$%$8%;=O8%o. -:*##",
"#:1  X%,++&&,,+$$%ZAtttBKjttl,+8$$X 2=8@X. -*###",
"#:1  o;+,3w+&,3++8nNtteZnVetd,,&+$6992;$X. -55<#",
"#:2  6o;+ww%O$,+&+ZBeetVWPeeS@&&&&Xq9q6=o. 2775#",
"#4-   -6O,wOX=8@+&xceeAdjceeN=@++,O q926   2>7>#",
"#1-   -6.%38o6;%@+nRlmamjSsjV-O$8&8=-q- 2  -9>>#",
"#2   66XoO+,%;;%@zaxlhdddjvvBBO$8&%;o6.o    2*5#",
"#2 ..oX;=O+3,+%xSuguSvCCCffLuua$$&$O=X==X.   4##",
"#2 ..=O%%$+3w3atuuttLfbybbkmssan$@@%=OOOOo   4##",
"#2 ..;%%$+,333MlhhhJvfkpkkfPlJaYOX%8O%%%%o   4<#",
"#1 ..;$@++&++&,@=66YpybpyyyfTCvo=-XO%$@@%o  155#",
"#1-..;@,&@%O$+&@; qGpbykyyybfyTvR2 X$@,&Oo -9>5#",
"#:1 .;+w&;.o%+&&$=2n2pkpfbbkyyCQLM6o%+33;. ->>5#",
"#:1  =8w$o- ;$@&&@;$GI960pkpkfiKca%%@+33;o -*<##",
"#:1  X%3%X6 ;%$+,,+&M%HiipppoKUVcm&+@@&+;o -:*##",
"#:1  o;@$OXoO$$$+,3&cmoi9HH0vAsldN3&$$$%X. -:*##",
"#:1  o=%%%%O$@$$$@@xeeBUI602cttcl@$%O$$Oo. -:*##",
"#*4- .X%$$@@++$$$$OzeeszZGEVmetsx$O=X%%O..-1**##",
"##:1  o%@+&&,,+$$$;Dhsdz+@&Dzssd@$=-2=O;  -4####",
"##*1- X8+3w3,,3@@$.nlhJz3,w3DhhhM@6q92oX  1<>5<#",
"##*:- .=+ww%O%,+&&;299-=+ww$=xaa&&Xq9q . -9r0r>#",
"###*2   %3wOo=8@&,8.q926O33O6o@&&,%6q1-  -50i07#",
"###*1-  X$&8o6=%@+3O q6-6%,%o-;%$&+;--   2<r0r>#",
"###*:2  .=%&%==%@8%;X6XX=O+,@oO%$@;o.6   4*555<#",
"####592  .XO%O=%@+8;===;OO@338%%O8=...  -4*#####",
"###5779-    ;O=O%+,;=;=O%%%&33$;;%X    -1:######",
"##<70irq-   ...XX=O=;O%%%%;O%%=o...   21:*######",
"##<70i0<42--  ....oooXXXXXooXX..   -1>5***#<r75#",
"##<>r0r5#411---                 --249r75###5rr>#",
"####>>5#####441-               -44:<>>5####<>5<#",
"####<<##>5##*::44441-    -114444:**#<<#<7<##<###",
"########55####*****:411111:*****#######<><######",
"################################################"
};
