/* XPM */
static char *_0b474fcdd244e66dab28bda0015e1aawZZ9DB4Xd7Km74VA[] = {
/* columns rows colors chars-per-pixel */
"48 48 73 1 ",
"  c #4D4034",
". c #4E423A",
"X c #514437",
"o c #52453A",
"O c #55493E",
"+ c #5A4E3F",
"@ c #564D44",
"# c #594E44",
"$ c #5A5046",
"% c #5B5249",
"& c #61564A",
"* c #655C4F",
"= c #685E4F",
"- c #665D52",
"; c #685F53",
": c #6A6156",
"> c #6C6359",
", c #716555",
"< c #72675A",
"1 c #75695A",
"2 c #7E735F",
"3 c #786F66",
"4 c #7B7266",
"5 c #7E756C",
"6 c #80776E",
"7 c #867D6C",
"8 c #887F6D",
"9 c #817770",
"0 c #827970",
"q c #87806C",
"w c #8A816D",
"e c #8B8270",
"r c #938771",
"t c #948872",
"y c #958872",
"u c #948873",
"i c #968A72",
"p c #948975",
"a c #988A70",
"s c #998B73",
"d c #998C73",
"f c #9A8D73",
"g c #9B8D73",
"h c #9C8E74",
"j c #998E79",
"k c #9E9074",
"l c #98907D",
"z c #9B917E",
"x c #9A937F",
"c c #9C937F",
"v c #A39477",
"b c #9A9380",
"n c #9C9381",
"m c #9B9480",
"M c #9C9481",
"N c #9D9482",
"B c #9D9582",
"V c #9F9783",
"C c #9F9784",
"Z c #9F9984",
"A c #A09884",
"S c #A09885",
"D c #A19985",
"F c #A29A86",
"G c #A29B88",
"H c #A49B89",
"J c #A59B8A",
"K c #A49C88",
"L c #A49C8A",
"P c #A59C8A",
"I c #A79D8B",
"U c #A79D8C",
"Y c #A7A08C",
/* pixels */
"ttttttfvatta;=-=**=*=**=**--=-**;***tthhtttttttt",
"ttttttttt=--&&MMnHHUnMnMZHGUFAnnbIHF-==attahkfft",
"tttttttt-7eFFGMMnbbnnMbFFMIGAFnnMbbbMF8+ttakvhft",
"ttttttt=557ZAFMMbznbnbbFGFFFFFMMbbzbMMnw$pdkvvft",
"tttttt64578GFFnbFHIGGFnnbGFAFZbnFIGIFFn864atfftt",
"tttttt@5558IFznnHIHIHHJGFbjFFbbnIHIGHHAw6 ratptt",
"ttttfj@45577bFGbFIHHIGIFGAnnbFFnZIHIHH756Orrtttt",
"tttff255557zFFGMnnbIHIFZGFnbAAFnzMnMMw8566Ortttt",
"tttfa&-5577nFAGMnbbbjFFFCbnbFAFbbbnbn8886:@paftt",
"tttj>>457eMnFFbnbbbFFnbbnnnbFFnbbbbFF788w6>%kkft",
"ttt,45777HMnMzHHAFFGmmnIHJbbbzIGCFFZC888w554#aur",
"tt,655w777MMMnnbAGFbnmbnHUnnMnbnFFGmb788w555:ouu",
"tp&:555777zzzxMMbbHUYMMMnbbbzbbnmmzzbM7ww555:Oru",
"tw->45556FFIFFMMnHHUbMMnCHGGFFMMzHIGMmz55554:--u",
"t1:6555547IHFGbMMjbnMMbAFCHUFFMMMIIUMMM555556:Xp",
"t&::4555578FZGbMMnnnnnbFAFFCFGMMMMmMMMx50445:>Xp",
">;53;>45558AFFnnUHIGUFnzmFAAFAnnmLLZMM8555::55-%",
"@;5;;>55558FFnbbHUUHJJUFGbbAGbnnHUIGU7w559::-0:.",
"@;>;;$5557nnbGFbFUHIUHHAFCbbAAAbIGHIH7ww59@::::.",
"#;;-$5557nnnAFGnbMMGHHGFFFnbGGANmGIHI7q7754@::>.",
"%@;@$5577nMMFFAHbbbbbFAAFMbzASGnnbzIG788w55@@>@.",
"#@@%555878MzFFbbznjZGbnnnMnzSGbnnbzbzF78w555@@@.",
"##@%555888wbMbIHFFFGnnbGFHnnnnHHCZVFFnM7w555@@@.",
"r@@%55588wMMmmzzFFFzbnnbIUbnnnbbFFFFzn78w555@@ t",
"r8#;9548q7bmMMbnnnmHHUMMmbnMMbnMbZFMMMMw5555:Ott",
"t*;46656557wbFFMMbIIUMMMbFGGHFMMmzFHM88w5555::%t",
"t#;6595555w7CnnMMMbnbMnnFFCUFFMMZMMM7wqw5555::Xr",
"t#;64;4655qe7bMMMMMMMMbbFAFGbMM87e778855555:::.r",
"--95;;955555w7w587eeeeeeeeww565657w555555>::34*-",
"@;5;;<555555455558888w5554555555555555550>:::6:O",
"@;;;-@555555559:5555555555555655455wq5555>#:::>O",
"#;;;%58855>55554:55555555;:>:555-58w0q55>::@::>@",
"#@;@%9859-;95555>;5wwww759>::-5;;530qw59:::@@:@O",
"#%@@;954;;;596-4@;50w77755;:::::@-55w555::::@@@#",
"%@@@-;;;;>;59;>$@555888>55:>:::@@-5555>>:>::@@@#",
"p#@%99;<@;>96;;@@55555;:55;;:::@@-5555:%50::@@ou",
"p#@;669;@;;55;>@555;55;;559::>;@:&5555:5555::@.r",
"p#-646;@@:5559;->5555>;555454:;;:::>>>:566>:>@or",
"t#;6--@@>:656->@>55555555-555:;@::::>::%50::@@Xu",
"#@;;-@@@::>44->@>55555555:55>::@::::>@:::::-@@@.",
"$$@$@@@@#:>;>;$@;>55555>::::::>@@::::@@%$$$$@@@.",
"#@@@@@@@:@@>;@@@>;;556->:::::::@@@:>@@@@$@@@@$@.",
"%@@#@@#@@#@@$@@@$;;>>;>>:;;::;@@@@@@@@@@@@$$#@@@",
"tp#@@#@@@@@$@@@@@@$;;>;#$@@$$@$@@@$@@@@@@@@@@@te",
"tttOOO+@@@@@@@@@#@@@@@@@@@@@#@@@@@$@@@@@@@@#Ottt",
"ttttttt@#@@@@@#@@@@@@@@@@@@%@@@$@@@@##@@@O#$tttt",
"ttttttttfttttttrtt0##@@@@@@@@$#$trtrttttfttttttt",
"tttttttttttttttrppptt@@@@@@@otttptrptttttrtttttt"
};
